
<svg width="130" height="162" fill="none" xmlns="http://www.w3.org/2000/svg"><path d="M40.302 11.068c12.096 0 21.218 13.901 12.12 13.972-16.127.112-4.03-11.961-12.12-13.972ZM56.612 9.057c16.003 0 21.218 13.9 12.127 13.966-16.157.118-4.06-11.955-12.127-13.966ZM28.23 13.079s8.065 4.028 1.997 12.073c-6.07 8.045-2.016 8.051 2.015 8.051 4.03 0 8.06-20.124-4.013-20.124Z" fill="#E637B7"/><path d="M64.549 49.134H24.247v60.372c0 20.077 36.153 20.113 40.302 20.113 4.148 0 40.302-.047 40.302-20.113V49.134H64.549Z" fill="#fff"/><path d="M104.845 41.254c-.368-19.893-16.127-36.226-48.386-32.197 4.03 0 16.126 4.022 16.126 12.073-2.015-8.051-20.15-12.073-32.26-10.056 2.016 0 8.067 2.01 8.067 10.056-6.051-8.051-8.09-8.051-20.163-8.051 8.067 2.011 8.067 12.073 4.03 16.102-2.015 2.011-4.03-4.029-2.015-10.056-6.05 6.027-10.093 14.078-6.05 22.13-4.03 4.022-6.046 20.112-6.046 20.112v16.125h10.076s0-20.112 4.03-24.147c4.03-4.034 16.132 0 32.26 0 16.126 0 28.228-4.022 32.258 0 4.031 4.023 4.043 24.147 4.043 24.147h10.075V61.378s-2.009-16.101-6.045-20.124Z" fill="#FF64C4"/><path d="m112.911 113.748-7.705-.047c.184-1.728.077-3.112-.379-4.023 0 4.023-8.067 12.073-20.151 12.073-8.067 0-16.127-28.175-20.151-28.175-4.025 0-12.097 28.175-20.151 28.175-12.097 0-20.151-8.05-20.151-12.073-.457.911-.593 2.295-.374 4.023l-7.704.047v5.992h9.05C30.102 135.457 46.276 162 56.458 162h16.127c10.176 0 26.35-26.543 31.264-42.26h9.062v-5.992Z" fill="#000"/><path d="m38.31 119.74 4.03-4.028c10.076 10.056 10.076 10.056 10.076 14.09 0 4.035-.083 16.067-.053 20.113.06 8.027-8.007 8.027-12.061 8.027-1.422 0-1.422-3.999 0-3.999 4.006 0 8.043 0 8.048-4.022v-16.073c0-4.04.042-4.046-10.04-14.108Z" fill="#149EF2"/><path d="M36.296 161.97c4.03 0 8.06.03 8.036-8.05v-8.022c0-8.051 0-8.051-12.096-20.112-16.127-16.096-20.062-16.197-24.193-12.074-4.131 4.123-4.03 4.023-4.03 16.102s20.18 32.156 32.283 32.156Z" fill="#FF64C4"/><path d="M36.296 162c4.03 0 4.03-4.052 4.03-8.063v-8.039c-.024-8.068-.024-8.068-8.066-16.096-12.109-12.085-20.063-20.225-24.193-16.101-4.131 4.123-4.03 4.022-4.03 16.101 0 12.08 20.156 32.198 32.259 32.198Z" fill="#000"/><path d="M28.23 159.983c8.374 0 8.06-2.011 8.06-6.034v-4.028c0-8.045 0-12.074-4.03-16.096-12.109-12.074-20.063-20.249-24.194-16.108C0 125.774 0 125.774 0 129.802v8.028c0 5.572 2.134 8.382 8.06 12.073 16.133 10.08 16.133 10.08 20.17 10.08Z" fill="#FF64C4"/><path d="m35.104 110.861-2.37 2.366c-.315.314-.492.74-.492 1.183v1.32l1.007-1.006 1.008 1.006 2.02 2.011 4.031-4.023-2.845-2.839a1.68 1.68 0 0 0-2.359-.018Z" fill="#149EF2"/><path d="m33.119 114.558 1.156 1.183-2.015 2.012v-2.81a.501.501 0 0 1 .594-.524c.1.019.193.067.265.139Z" fill="#000672"/><path d="m40.732 113.289-4.857 4.848a.84.84 0 0 0 0 1.188l2.842 2.836a.843.843 0 0 0 1.19 0l4.857-4.848a.839.839 0 0 0 0-1.188l-2.842-2.836a.843.843 0 0 0-1.19 0Z" fill="#000"/><path d="m41.331 114.707-4.031 4.024 2.016 2.012 4.031-4.024-2.016-2.012ZM26.214 159.983c2.015 0 2.015 0 2.015-10.056 0-8.045 0-8.045-12.096-20.113C6.057 119.758 0 123.774 0 129.814v8.045c0 5.572 2.134 8.382 8.06 12.074 16.133 10.05 16.133 10.05 18.154 10.05Z" fill="#149EF2"/><path d="M48.392 127.785c1.113 0 2.015-.9 2.015-2.011a2.013 2.013 0 0 0-2.015-2.011c-1.113 0-2.015.9-2.015 2.011 0 1.111.902 2.011 2.015 2.011Z" fill="#fff"/><path d="M48.392 126.981a1.208 1.208 0 1 0 0-2.414 1.208 1.208 0 1 0 0 2.414Z" fill="#000"/><path d="M10.076 93.576V73.464s-8.067 0-8.067 10.056 8.067 10.056 8.067 10.056Z" fill="#149EF2"/><path d="M8.066 69.43c0-2.012 6.046-4.017 6.046-2.012v32.198c0 1.999-6.046 0-6.046-2.017v-28.17Z" fill="#FF64C4"/><path d="M79.306 0H49.737a34.682 34.682 0 0 0-24.464 10.129 34.548 34.548 0 0 0-10.148 24.417v30.855h2.015V34.546a32.539 32.539 0 0 1 9.558-22.995 32.664 32.664 0 0 1 23.04-9.54h29.568a32.663 32.663 0 0 1 23.039 9.54 32.538 32.538 0 0 1 9.558 22.995v30.855h2.015V34.546a34.556 34.556 0 0 0-10.149-24.416A34.69 34.69 0 0 0 79.306 0Z" fill="#fff"/><path d="M118.962 93.576V73.464s8.061 0 8.061 10.056-8.061 10.056-8.061 10.056Z" fill="#149EF2"/><path d="M120.977 69.43c0-2.012-6.051-4.017-6.051-2.012v32.198c0 1.999 6.051 0 6.051-2.017v-28.17Z" fill="#FF64C4"/><path d="M24.193 149.921c0-8.045 0-8.045-8.06-16.096s-12.097-8.051-12.097 0 0 8.051 8.06 14.084c8.06 6.034 12.097 10.063 12.097 2.012Z" fill="#000"/><path d="m90.733 119.74-4.036-4.028c-10.076 10.056-10.076 10.056-10.076 14.09 0 4.035.089 16.067.06 20.113-.066 8.027 8 8.027 12.037 8.027 1.416 0 1.416-3.999 0-3.999-4.007 0-8.049 0-8.055-4.022v-16.073c0-4.04-.012-4.046 10.07-14.108Z" fill="#149EF2"/><path d="M92.748 161.97c-4.03 0-8.066.03-8.037-8.05 0-4.011-.03-3.999-.03-8.022 0-8.051 0-8.051 12.097-20.112 16.133-16.096 20.068-16.197 24.199-12.074 4.131 4.123 4.03 4.023 4.03 16.102s-20.162 32.156-32.259 32.156Z" fill="#FF64C4"/><path d="M92.748 162c-4.03 0-4.03-4.052-4.03-8.063v-8.039c0-8.051 0-8.051 8.06-16.096 12.103-12.079 20.068-20.225 24.199-16.101 4.131 4.123 4.03 4.022 4.03 16.101 0 12.08-20.162 32.198-32.259 32.198Z" fill="#000"/><path d="M100.814 159.983c-8.374 0-8.066-2.011-8.066-6.034v-4.028c0-8.045 0-12.074 4.036-16.096 12.097-12.074 20.062-20.249 24.193-16.108 8.067 8.051 8.067 8.051 8.067 12.079v8.045c0 5.573-2.14 8.383-8.061 12.074-16.138 10.068-16.138 10.068-20.169 10.068Z" fill="#FF64C4"/><path d="m93.94 110.861 2.37 2.366a1.657 1.657 0 0 1 .492 1.183v1.32l-1.007-1.006-1.008 1.006-2.015 2.011-4.03-4.023 2.845-2.839a1.676 1.676 0 0 1 2.352-.018Z" fill="#149EF2"/><path d="m95.919 114.558-1.185 1.183 2.015 2.012v-2.81a.502.502 0 0 0-.572-.5.507.507 0 0 0-.258.115Z" fill="#000672"/><path d="m87.116 113.286-2.841 2.836a.84.84 0 0 0 0 1.188l4.857 4.848a.843.843 0 0 0 1.19 0l2.841-2.836a.84.84 0 0 0 0-1.188l-4.857-4.848a.843.843 0 0 0-1.19 0Z" fill="#000"/><path d="m87.707 114.704-2.016 2.012 4.031 4.024 2.016-2.012-4.031-4.024ZM102.829 159.983c-2.015 0-2.015 0-2.015-10.056 0-8.045 0-8.045 12.097-20.113 10.075-10.056 16.132-6.04 16.132 0v8.045c0 5.572-2.139 8.382-8.06 12.074-16.139 10.05-16.139 10.05-18.154 10.05Z" fill="#149EF2"/><path d="M80.652 127.785c1.112 0 2.015-.9 2.015-2.011a2.013 2.013 0 0 0-2.015-2.011c-1.113 0-2.016.9-2.016 2.011 0 1.111.903 2.011 2.016 2.011Z" fill="#fff"/><path d="M80.651 126.981a1.208 1.208 0 1 0 0-2.414 1.208 1.208 0 1 0 0 2.414ZM104.845 149.921c0-8.045 0-8.045 8.066-16.096s12.097-8.051 12.097 0 0 8.051-8.067 14.084c-8.066 6.034-12.096 10.063-12.096 2.012Z" fill="#000"/><path d="M54.438 145.898h20.15v-22.265a33.524 33.524 0 0 0-3.555-15.002l-4.03-8.069a1.675 1.675 0 0 0-1.506-.922H63.54a1.674 1.674 0 0 0-1.5.922l-4.053 8.093a33.45 33.45 0 0 0-3.556 15.001l.006 22.242Z" fill="#FF64C4"/><path d="M68.555 155.96h-8.067c-4.03 0-6.047-2.013-6.05-6.039v-8.075c0-3.999 2.02-6.01 6.02-6.01h8.097c4.03 0 6.045 2.011 6.045 6.01v8.104c0 3.999-2.015 6.01-6.045 6.01Z" fill="#149EF2"/><path d="M64.519 153.949c4.455 0 8.066-3.604 8.066-8.051 0-4.446-3.611-8.051-8.066-8.051s-8.067 3.605-8.067 8.051c0 4.447 3.612 8.051 8.067 8.051Z" fill="#000"/><path d="M69.053 141.97a.427.427 0 0 0-.042.55 5.586 5.586 0 0 1 0 6.756.42.42 0 0 0 .19.646.415.415 0 0 0 .344-.019.437.437 0 0 0 .136-.112 6.438 6.438 0 0 0 0-7.779.423.423 0 0 0-.48-.136.42.42 0 0 0-.148.094ZM60.584 141.379a.419.419 0 0 0 .55.035 5.623 5.623 0 0 1 6.775 0 .419.419 0 0 0 .545-.035.416.416 0 0 0 .077-.491.418.418 0 0 0-.112-.136 6.462 6.462 0 0 0-7.794 0 .411.411 0 0 0-.162.304.418.418 0 0 0 .12.323ZM68.454 150.418a.413.413 0 0 0-.545-.036 5.617 5.617 0 0 1-6.774 0 .421.421 0 0 0-.646.184.42.42 0 0 0 .136.479 6.441 6.441 0 0 0 7.794 0 .418.418 0 0 0 .035-.627ZM59.99 149.826a.413.413 0 0 0 .036-.55 5.608 5.608 0 0 1 0-6.756.412.412 0 0 0-.184-.644.416.416 0 0 0-.48.136 6.432 6.432 0 0 0 0 7.779.42.42 0 0 0 .628.035Z" fill="#fff"/><path d="M58.308 133.825h12.446a1.669 1.669 0 0 0 1.599-1.158 1.67 1.67 0 0 0 .072-.694c-.51-4.803-2.187-17.48-5.867-20.284-.806-.591-3.236-.591-4.037 0-3.68 2.804-5.334 15.481-5.867 20.284a1.673 1.673 0 0 0 1.654 1.852Z" fill="#149EF2"/><path d="M58.805 130.216a.414.414 0 0 1-.415-.414c.017-1.076.099-2.151.243-3.218a.418.418 0 0 1 .159-.278.405.405 0 0 1 .146-.072.43.43 0 0 1 .444.147.424.424 0 0 1 .087.31 25.562 25.562 0 0 0-.243 3.111.412.412 0 0 1-.42.414Zm.462-4.809h-.065a.426.426 0 0 1-.276-.166.416.416 0 0 1-.073-.313c.557-3.466 1.956-9.796 3.668-11.505a.422.422 0 0 1 .69.303.418.418 0 0 1-.097.288c-1.298 1.296-2.708 6.507-3.432 11.044a.427.427 0 0 1-.415.349ZM107.114 121.751h-.503v36.167h.503v-36.167ZM109.13 121.751h-.504v36.167h.504v-36.167ZM111.145 121.751h-.504v36.167h.504v-36.167ZM113.16 121.751h-.504v36.167h.504v-36.167ZM115.181 121.751h-.504v36.167h.504v-36.167ZM117.196 121.751h-.504v36.167h.504v-36.167ZM119.211 121.751h-.504v36.167h.504v-36.167ZM121.226 121.751h-.504v36.167h.504v-36.167ZM123.241 121.751h-.504v36.167h.504v-36.167ZM22.433 121.751h-.504v36.167h.504v-36.167ZM20.412 121.751h-.504v36.167h.504v-36.167ZM18.397 121.751h-.504v36.167h.504v-36.167ZM16.381 121.751h-.503v36.167h.503v-36.167ZM14.367 121.751h-.504v36.167h.504v-36.167ZM12.351 121.751h-.503v36.167h.503v-36.167ZM10.336 121.751h-.503v36.167h.503v-36.167ZM8.315 121.751h-.503v36.167h.503v-36.167ZM6.3 121.751h-.504v36.167H6.3v-36.167Z" fill="#fff"/><path d="M116.941 65.401c0-4.022-12.096-7.205-12.096-4.022v44.271c0 3.182 12.096 0 12.096-4.023V65.401Z" fill="#000"/><path d="M108.881 109.672h4.03V57.35h-4.03v52.322Z" fill="#149EF2"/><path d="M12.097 65.401c0-4.022 12.096-7.205 12.096-4.022v44.271c0 3.182-12.096 0-12.096-4.023V65.401Z" fill="#000"/><path d="M20.163 57.356h-4.03v52.322h4.03V57.356Z" fill="#149EF2"/><path d="M64.519 73.452c-20.394 0-40.302 4.022-40.302 4.022v18.114h2.02l2.016 6.039h24.17c4.035-16.102 4.035-16.102 12.096-16.102 8.06 0 8.066 0 12.096 16.102h24.199l2.015-6.04h2.016V77.493s-19.926-4.04-40.326-4.04Z" fill="#000672"/><path d="M44.587 85.295v8.512h-8.522v-8.512h8.522Zm2.525-2.514H33.54v13.54h13.572v-13.54ZM88.718 86.773l3.829 7.034h-7.658l3.829-7.034Zm0-5.27L80.652 96.32h16.126l-8.06-14.818Z" fill="#149EF2"/><path d="M96.778 71.44c2.021 0-4.03-4.022-6.045-4.022-4.149 0-16.133 2.011-16.133 4.218 0 1.816 2.015 5.838 4.037 5.838 2.02 0 8.06-6.033 18.141-6.033ZM32.26 71.44c-2.016 0 4.035-4.022 6.05-4.022 4.15 0 16.127 2.011 16.127 4.218 0 1.816-2.015 5.838-4.03 5.838s-8.066-6.033-18.148-6.033Z" fill="#E05AB7"/><path d="M96.778 43.892H24.223v5.443h72.555v-5.443Z" fill="#FF64C4"/><path d="M96.778 43.283H24.223v.61h72.555v-.61Z" fill="#FF64C4"/><path d="M96.778 42.674H24.223v.61h72.555v-.61Z" fill="#FE63C4"/><path d="M96.778 42.065H24.223v.609h72.555v-.61Z" fill="#FE62C3"/><path d="M96.778 41.461H24.223v.61h72.555v-.61Z" fill="#FD61C3"/><path d="M96.778 40.852H24.223v.61h72.555v-.61Z" fill="#FD60C3"/><path d="M96.778 40.243H24.223v.609h72.555v-.61Z" fill="#FC5FC3"/><path d="M96.778 39.633H24.223v.61h72.555v-.61Z" fill="#FC5EC2"/><path d="M96.778 39.024H24.223v.61h72.555v-.61Z" fill="#FB5DC2"/><path d="M96.778 38.42H24.223v.61h72.555v-.61Z" fill="#FA5CC2"/><path d="M96.778 37.811H24.223v.61h72.555v-.61Z" fill="#FA5BC1"/><path d="M96.778 37.202H24.223v.61h72.555v-.61Z" fill="#F95AC1"/><path d="M96.778 36.593H24.223v.61h72.555v-.61Z" fill="#F959C1"/><path d="M96.778 35.99H24.223v.609h72.555v-.61Z" fill="#F858C0"/><path d="M96.778 35.38H24.223v.61h72.555v-.61Z" fill="#F857C0"/><path d="M96.778 34.77H24.223v.61h72.555v-.61Z" fill="#F756C0"/><path d="M96.778 34.162H24.223v.609h72.555v-.61Z" fill="#F655C0"/><path d="M96.778 33.552H24.223v.61h72.555v-.61Z" fill="#F654BF"/><path d="M96.778 32.949H24.223v.61h72.555v-.61Z" fill="#F553BF"/><path d="M96.778 32.34H24.223v.609h72.555v-.61Z" fill="#F552BF"/><path d="M96.778 31.73H24.223v.61h72.555v-.61Z" fill="#F451BE"/><path d="M96.778 31.121H24.223v.61h72.555v-.61Z" fill="#F450BE"/><path d="M96.778 30.512H24.223v.61h72.555v-.61Z" fill="#F34FBE"/><path d="M96.778 29.908H24.223v.61h72.555v-.61Z" fill="#F34EBE"/><path d="M96.778 29.3H24.223v.608h72.555V29.3Z" fill="#F24CBD"/><path d="M96.778 28.69H24.223v.61h72.555v-.61Z" fill="#F14BBD"/><path d="M96.778 28.08H24.223v.61h72.555v-.61Z" fill="#F14ABD"/><path d="M96.778 27.477H24.223v.61h72.555v-.61Z" fill="#F049BC"/><path d="M96.778 26.868H24.223v.61h72.555v-.61Z" fill="#F048BC"/><path d="M96.778 26.259H24.223v.609h72.555v-.61Z" fill="#EF47BC"/><path d="M96.778 25.65H24.223v.609h72.555v-.61Z" fill="#EF46BB"/><path d="M96.778 25.04H24.223v.61h72.555v-.61Z" fill="#EE45BB"/><path d="M96.778 24.437H24.223v.609h72.555v-.61Z" fill="#ED44BB"/><path d="M96.778 23.827H24.223v.61h72.555v-.61Z" fill="#ED43BB"/><path d="M96.778 23.218H24.223v.61h72.555v-.61Z" fill="#EC42BA"/><path d="M96.778 22.609H24.223v.61h72.555v-.61Z" fill="#EC41BA"/><path d="M96.778 22.005H24.223v.61h72.555v-.61Z" fill="#EB40BA"/><path d="M96.778 21.396H24.223v.61h72.555v-.61Z" fill="#EB3FB9"/><path d="M96.778 20.787H24.223v.61h72.555v-.61Z" fill="#EA3EB9"/><path d="M96.778 20.177H24.223v.61h72.555v-.61Z" fill="#E93DB9"/><path d="M96.778 19.568H24.223v.61h72.555v-.61Z" fill="#E93CB8"/><path d="M96.778 18.965H24.223v.61h72.555v-.61Z" fill="#E83BB8"/><path d="M96.778 18.356H24.223v.609h72.555v-.61Z" fill="#E83AB8"/><path d="M96.778 17.746H24.223v.61h72.555v-.61Z" fill="#E739B8"/><path d="M96.778 17.137H24.223v.61h72.555v-.61Z" fill="#E738B7"/><path d="M96.778 16.528H24.223v.609h72.555v-.61Z" fill="#E637B7"/><path d="M96.778 15.09H24.223v1.438h72.555V15.09Z" fill="#E637B7"/><path d="M88.712 37.202H64.52v.024h24.193v-.024Z" fill="#F95AC1"/><path d="M88.712 36.593H64.52v.61h24.193v-.61Z" fill="#F959C1"/><path d="M88.712 35.99H64.52v.609h24.193v-.61Z" fill="#F858C0"/><path d="M88.712 35.38H64.52v.61h24.193v-.61Z" fill="#F857C0"/><path d="M88.712 34.77H64.52v.61h24.193v-.61Z" fill="#F756C0"/><path d="M88.712 34.162H64.52v.609h24.193v-.61Z" fill="#F655C0"/><path d="M88.712 33.552H64.52v.61h24.193v-.61Z" fill="#F654BF"/><path d="M88.712 32.949H64.52v.61h24.193v-.61Z" fill="#F553BF"/><path d="M88.712 32.34H64.52v.609h24.193v-.61Z" fill="#F552BF"/><path d="M88.712 31.73H64.52v.61h24.193v-.61Z" fill="#F451BE"/><path d="M88.712 31.121H64.52v.61h24.193v-.61Z" fill="#F450BE"/><path d="M88.712 30.512H64.52v.61h24.193v-.61Z" fill="#F34FBE"/><path d="M88.712 29.908H64.52v.61h24.193v-.61Z" fill="#F34EBE"/><path d="M88.712 29.3H64.52v.608h24.193V29.3Z" fill="#F24CBD"/><path d="M88.712 28.69H64.52v.61h24.193v-.61Z" fill="#F14BBD"/><path d="M88.712 28.08H64.52v.61h24.193v-.61Z" fill="#F14ABD"/><path d="M88.712 27.477H64.52v.61h24.193v-.61Z" fill="#F049BC"/><path d="M88.712 26.868H64.52v.61h24.193v-.61Z" fill="#F048BC"/><path d="M88.712 26.259H64.52v.609h24.193v-.61Z" fill="#EF47BC"/><path d="M88.712 25.65H64.52v.609h24.193v-.61Z" fill="#EF46BB"/><path d="M88.712 25.04H64.52v.61h24.193v-.61Z" fill="#EE45BB"/><path d="M88.712 24.437H64.52v.609h24.193v-.61Z" fill="#ED44BB"/><path d="M88.712 23.827H64.52v.61h24.193v-.61Z" fill="#ED43BB"/><path d="M88.712 23.218H64.52v.61h24.193v-.61Z" fill="#EC42BA"/><path d="M88.712 22.609H64.52v.61h24.193v-.61Z" fill="#EC41BA"/><path d="M88.712 22.005H64.52v.61h24.193v-.61Z" fill="#EB40BA"/><path d="M88.712 21.396H64.52v.61h24.193v-.61Z" fill="#EB3FB9"/><path d="M88.712 21.13H64.52v.266h24.193v-.266Z" fill="#EA3EB9"/><path d="M66.688 37.202H42.495v.024h24.193v-.024Z" fill="#F95AC1"/><path d="M66.688 36.593H42.495v.61h24.193v-.61Z" fill="#F959C1"/><path d="M66.688 35.99H42.495v.609h24.193v-.61Z" fill="#F858C0"/><path d="M66.688 35.38H42.495v.61h24.193v-.61Z" fill="#F857C0"/><path d="M66.688 34.77H42.495v.61h24.193v-.61Z" fill="#F756C0"/><path d="M66.688 34.162H42.495v.609h24.193v-.61Z" fill="#F655C0"/><path d="M66.688 33.552H42.495v.61h24.193v-.61Z" fill="#F654BF"/><path d="M66.688 32.949H42.495v.61h24.193v-.61Z" fill="#F553BF"/><path d="M66.688 32.34H42.495v.609h24.193v-.61Z" fill="#F552BF"/><path d="M66.688 31.73H42.495v.61h24.193v-.61Z" fill="#F451BE"/><path d="M66.688 31.121H42.495v.61h24.193v-.61Z" fill="#F450BE"/><path d="M66.688 30.512H42.495v.61h24.193v-.61Z" fill="#F34FBE"/><path d="M66.688 29.908H42.495v.61h24.193v-.61Z" fill="#F34EBE"/><path d="M66.688 29.3H42.495v.608h24.193V29.3Z" fill="#F24CBD"/><path d="M66.688 28.69H42.495v.61h24.193v-.61Z" fill="#F14BBD"/><path d="M66.688 28.08H42.495v.61h24.193v-.61Z" fill="#F14ABD"/><path d="M66.688 27.477H42.495v.61h24.193v-.61Z" fill="#F049BC"/><path d="M66.688 26.868H42.495v.61h24.193v-.61Z" fill="#F048BC"/><path d="M66.688 26.259H42.495v.609h24.193v-.61Z" fill="#EF47BC"/><path d="M66.688 25.65H42.495v.609h24.193v-.61Z" fill="#EF46BB"/><path d="M66.688 25.04H42.495v.61h24.193v-.61Z" fill="#EE45BB"/><path d="M66.688 24.437H42.495v.609h24.193v-.61Z" fill="#ED44BB"/><path d="M66.688 23.827H42.495v.61h24.193v-.61Z" fill="#ED43BB"/><path d="M66.688 23.218H42.495v.61h24.193v-.61Z" fill="#EC42BA"/><path d="M66.688 22.609H42.495v.61h24.193v-.61Z" fill="#EC41BA"/><path d="M66.688 22.005H42.495v.61h24.193v-.61Z" fill="#EB40BA"/><path d="M66.688 21.396H42.495v.61h24.193v-.61Z" fill="#EB3FB9"/><path d="M66.688 21.13H42.495v.266h24.193v-.266Z" fill="#EA3EB9"/><path d="M52.422 40.852H30.244v.402h22.178v-.402Z" fill="#FD60C3"/><path d="M52.422 40.243H30.244v.609h22.178v-.61Z" fill="#FC5FC3"/><path d="M52.422 39.633H30.244v.61h22.178v-.61Z" fill="#FC5EC2"/><path d="M52.422 39.024H30.244v.61h22.178v-.61Z" fill="#FB5DC2"/><path d="M52.422 38.42H30.244v.61h22.178v-.61Z" fill="#FA5CC2"/><path d="M52.422 37.811H30.244v.61h22.178v-.61Z" fill="#FA5BC1"/><path d="M52.422 37.202H30.244v.61h22.178v-.61Z" fill="#F95AC1"/><path d="M52.422 36.593H30.244v.61h22.178v-.61Z" fill="#F959C1"/><path d="M52.422 35.99H30.244v.609h22.178v-.61Z" fill="#F858C0"/><path d="M52.422 35.38H30.244v.61h22.178v-.61Z" fill="#F857C0"/><path d="M52.422 34.77H30.244v.61h22.178v-.61Z" fill="#F756C0"/><path d="M52.422 34.162H30.244v.609h22.178v-.61Z" fill="#F655C0"/><path d="M52.422 33.552H30.244v.61h22.178v-.61Z" fill="#F654BF"/><path d="M52.422 32.949H30.244v.61h22.178v-.61Z" fill="#F553BF"/><path d="M52.422 32.34H30.244v.609h22.178v-.61Z" fill="#F552BF"/><path d="M52.422 31.73H30.244v.61h22.178v-.61Z" fill="#F451BE"/><path d="M52.422 31.121H30.244v.61h22.178v-.61Z" fill="#F450BE"/><path d="M52.422 30.512H30.244v.61h22.178v-.61Z" fill="#F34FBE"/><path d="M52.422 29.908H30.244v.61h22.178v-.61Z" fill="#F34EBE"/><path d="M52.422 29.3H30.244v.608h22.178V29.3Z" fill="#F24CBD"/><path d="M52.422 28.69H30.244v.61h22.178v-.61Z" fill="#F14BBD"/><path d="M52.422 28.08H30.244v.61h22.178v-.61Z" fill="#F14ABD"/><path d="M52.422 27.477H30.244v.61h22.178v-.61Z" fill="#F049BC"/><path d="M52.422 26.868H30.244v.61h22.178v-.61Z" fill="#F048BC"/><path d="M52.422 26.259H30.244v.609h22.178v-.61Z" fill="#EF47BC"/><path d="M52.422 25.65H30.244v.609h22.178v-.61Z" fill="#EF46BB"/><path d="M52.422 25.152H30.244v.497h22.178v-.497Z" fill="#EE45BB"/><path d="M42.353 43.892H26.214v5.419h16.139v-5.419Z" fill="#FF64C4"/><path d="M42.353 43.283H26.214v.61h16.139v-.61Z" fill="#FF64C4"/><path d="M42.353 42.674H26.214v.61h16.139v-.61Z" fill="#FE63C4"/><path d="M42.353 42.065H26.214v.609h16.139v-.61Z" fill="#FE62C3"/><path d="M42.353 41.461H26.214v.61h16.139v-.61Z" fill="#FD61C3"/><path d="M42.353 40.852H26.214v.61h16.139v-.61Z" fill="#FD60C3"/><path d="M42.353 40.243H26.214v.609h16.139v-.61Z" fill="#FC5FC3"/><path d="M42.353 39.633H26.214v.61h16.139v-.61Z" fill="#FC5EC2"/><path d="M42.353 39.243H26.214v.39h16.139v-.39Z" fill="#FB5DC2"/><path d="M100.814 43.892H88.718v5.413h12.096v-5.413Z" fill="#FF64C4"/><path d="M100.814 43.283H88.718v.61h12.096v-.61Z" fill="#FF64C4"/><path d="M100.814 42.674H88.718v.61h12.096v-.61Z" fill="#FE63C4"/><path d="M100.814 42.065H88.718v.609h12.096v-.61Z" fill="#FE62C3"/><path d="M100.814 41.461H88.718v.61h12.096v-.61Z" fill="#FD61C3"/><path d="M100.814 40.852H88.718v.61h12.096v-.61Z" fill="#FD60C3"/><path d="M100.814 40.243H88.718v.609h12.096v-.61Z" fill="#FC5FC3"/><path d="M100.814 39.633H88.718v.61h12.096v-.61Z" fill="#FC5EC2"/><path d="M100.814 39.024H88.718v.61h12.096v-.61Z" fill="#FB5DC2"/><path d="M100.814 38.42H88.718v.61h12.096v-.61Z" fill="#FA5CC2"/><path d="M100.814 37.811H88.718v.61h12.096v-.61Z" fill="#FA5BC1"/><path d="M100.814 37.202H88.718v.61h12.096v-.61Z" fill="#F95AC1"/><path d="M100.814 36.593H88.718v.61h12.096v-.61Z" fill="#F959C1"/><path d="M100.814 35.99H88.718v.609h12.096v-.61Z" fill="#F858C0"/><path d="M100.814 35.38H88.718v.61h12.096v-.61Z" fill="#F857C0"/><path d="M100.814 34.77H88.718v.61h12.096v-.61Z" fill="#F756C0"/><path d="M100.814 34.162H88.718v.609h12.096v-.61Z" fill="#F655C0"/><path d="M100.814 33.552H88.718v.61h12.096v-.61Z" fill="#F654BF"/><path d="M100.814 32.949H88.718v.61h12.096v-.61Z" fill="#F553BF"/><path d="M100.814 32.34H88.718v.609h12.096v-.61Z" fill="#F552BF"/><path d="M100.814 31.73H88.718v.61h12.096v-.61Z" fill="#F451BE"/><path d="M100.814 31.121H88.718v.61h12.096v-.61Z" fill="#F450BE"/><path d="M100.814 30.512H88.718v.61h12.096v-.61Z" fill="#F34FBE"/><path d="M100.814 29.908H88.718v.61h12.096v-.61Z" fill="#F34EBE"/><path d="M100.814 29.3H88.718v.608h12.096V29.3Z" fill="#F24CBD"/><path d="M100.814 29.18H88.718v.12h12.096v-.12Z" fill="#F14BBD"/></svg>